<?xml version="1.0" encoding="UTF-8" standalone="no"?>
<!DOCTYPE svg PUBLIC "-//W3C//DTD SVG 1.1//EN" "http://www.w3.org/Graphics/SVG/1.1/DTD/svg11.dtd">
<svg width="100%" height="100%" viewBox="0 0 62 62" version="1.1" xmlns="http://www.w3.org/2000/svg" xmlns:xlink="http://www.w3.org/1999/xlink" xml:space="preserve" xmlns:serif="http://www.serif.com/" style="fill-rule:evenodd;clip-rule:evenodd;stroke-linejoin:round;stroke-miterlimit:2;">
    <g transform="matrix(1,0,0,1,-1.168,-1.00065)">
        <path d="M32.172,40C34.248,40.006 36.243,39.18 37.707,37.707L36.293,36.293C35.203,37.389 33.718,38.004 32.172,38L31.828,38C30.282,38.004 28.797,37.389 27.707,36.293L26.293,37.707C27.757,39.18 29.752,40.006 31.828,40L32.172,40Z" style="fill-rule:nonzero;"/>
        <path d="M61.8,59.9C59.765,56.839 56.323,54.996 52.648,55L47.616,55C46.685,55.001 45.763,54.812 44.908,54.444C42.018,53.204 40.103,50.383 40.018,47.239C40.447,46.908 40.856,46.552 41.242,46.171L45.657,41.757C47.162,40.261 48.006,38.222 48,36.1L48,30.576C49.818,29.789 51,27.989 51,26.009C51,24.11 49.914,22.371 48.208,21.537L49.208,18.549C50.775,13.848 49.995,8.669 47.112,4.638L44.812,1.419C44.624,1.157 44.321,1.001 43.999,1.001C43.734,1.001 43.479,1.106 43.292,1.293L41,3.586L38.707,1.293C38.319,0.905 37.681,0.905 37.293,1.293L35,3.586L32.707,1.293C32.319,0.905 31.681,0.905 31.293,1.293L29,3.586L26.707,1.293C26.319,0.905 25.681,0.905 25.293,1.293L23,3.586L20.707,1.293C20.52,1.106 20.265,1.001 20,1.001C19.678,1.001 19.375,1.157 19.187,1.419L16.887,4.637C14.008,8.67 13.231,13.849 14.8,18.549L15.8,21.537C14.092,22.37 13.004,24.111 13.004,26.01C13.004,27.989 14.185,29.788 16,30.576L16,36.1C15.994,38.222 16.839,40.26 18.343,41.756L22.758,46.17C23.144,46.551 23.553,46.907 23.982,47.238C23.896,50.382 21.982,53.203 19.091,54.443C18.236,54.811 17.315,55.001 16.384,55L11.352,55C7.677,54.996 4.235,56.839 2.2,59.9L1.168,61.445L2.832,62.555L3.863,61.008C5.528,58.504 8.345,56.996 11.352,57L16.384,57C17.587,57.003 18.779,56.758 19.884,56.282C20.563,55.982 21.207,55.608 21.804,55.166C24.49,57.634 28.009,59.003 31.657,59L32.343,59C35.992,59.004 39.513,57.635 42.2,55.166C42.796,55.608 43.44,55.982 44.119,56.282C45.224,56.758 46.416,57.002 47.619,57L52.651,57C55.658,56.996 58.475,58.504 60.14,61.008L61.171,62.555L62.835,61.445L61.8,59.9ZM46,29L45,29L45,23L46,23C47.646,23 49,24.354 49,26C49,27.646 47.646,29 46,29ZM16.692,17.916C15.328,13.822 16.006,9.312 18.515,5.8L20.128,3.542L22.293,5.707C22.681,6.095 23.319,6.095 23.707,5.707L26,3.414L28.293,5.707C28.681,6.095 29.319,6.095 29.707,5.707L32,3.414L34.293,5.707C34.681,6.095 35.319,6.095 35.707,5.707L38,3.414L40.293,5.707C40.681,6.095 41.319,6.095 41.707,5.707L43.872,3.542L45.485,5.8C47.994,9.312 48.672,13.822 47.308,17.916L46.271,21.027C46.179,21.022 46.093,21 46,21L45,21L45,18C45,16.354 43.646,15 42,15C40.344,15.005 38.754,14.346 37.586,13.172L36.353,11.938C34.476,10.052 31.92,8.993 29.259,9C25.091,9.013 21.342,11.611 19.866,15.509C19.293,17.036 18.999,18.654 19,20.285L19,21L18,21C17.907,21 17.821,21.022 17.729,21.027L16.692,17.916ZM43,18L43,32.667C43,32.667 43,32.668 43,32.668C43,33.948 41.947,35.001 40.667,35.001C39.933,35.001 39.24,34.654 38.8,34.067C37.35,32.142 35.077,31.005 32.667,31L31.333,31C28.923,31.005 26.65,32.141 25.2,34.066C24.76,34.653 24.067,35 23.333,35C22.053,35 21,33.947 21,32.667C21,32.667 21,32.666 21,32.666L21,20.285C20.999,18.894 21.25,17.513 21.739,16.211C22.921,13.09 25.922,11.01 29.259,11C31.389,10.994 33.436,11.842 34.938,13.353L36.172,14.586C37.714,16.136 39.814,17.006 42,17C42.549,17 43,17.451 43,18ZM15,26C15,24.354 16.354,23 18,23L19,23L19,29L18,29C16.354,29 15,27.646 15,26ZM19.757,40.343C18.629,39.221 17.995,37.692 18,36.1L18,31L19,31L19,32.667C19.001,35.044 20.957,36.999 23.334,36.999C24.696,36.999 25.982,36.357 26.8,35.267C27.872,33.844 29.552,33.004 31.333,33L32.667,33C34.448,33.004 36.128,33.844 37.2,35.267C38.018,36.357 39.304,36.999 40.666,36.999C43.043,36.999 44.999,35.044 45,32.667L45,31L46,31L46,36.1C46.004,37.691 45.371,39.22 44.243,40.342L39.828,44.756C37.753,46.832 34.935,47.999 32,47.999C29.065,47.999 26.247,46.832 24.172,44.756L19.757,40.343ZM32.343,57L31.657,57C28.584,57.004 25.614,55.881 23.314,53.844C24.692,52.359 25.59,50.492 25.89,48.488C29.71,50.502 34.29,50.502 38.11,48.488C38.41,50.492 39.308,52.359 40.686,53.844C38.386,55.881 35.416,57.004 32.343,57Z" style="fill-rule:nonzero;"/>
    </g>
</svg>
